<svg xmlns="http://www.w3.org/2000/svg" xmlns:xlink="http://www.w3.org/1999/xlink" width="78" height="78" viewBox="0 0 78 78">
    <defs>
        <circle id="b" cx="20" cy="20" r="20"/>
        <filter id="a" width="272.5%" height="272.5%" x="-86.2%" y="-63.8%" filterUnits="objectBoundingBox">
            <feOffset dy="9" in="SourceAlpha" result="shadowOffsetOuter1"/>
            <feGaussianBlur in="shadowOffsetOuter1" result="shadowBlurOuter1" stdDeviation="10"/>
            <feColorMatrix in="shadowBlurOuter1" values="0 0 0 0 0 0 0 0 0 0 0 0 0 0 0 0 0 0 0.094378278 0"/>
        </filter>
    </defs>
    <g fill="none" fill-rule="evenodd">
        <g transform="translate(19 10)">
            <use fill="#000" filter="url(#a)" xlink:href="#b"/>
            <use fill="#2A2C62" xlink:href="#b"/>
        </g>
        <g fill-rule="nonzero" transform="translate(28.23 22.82)">
            <path fill="#FFC107" d="M20.214 1.868a1.847 1.847 0 0 0-1.746 2.428l-1.49.956a2.282 2.282 0 0 1-3.012-.487l-1.461-1.804c.232-.316.358-.7.358-1.093A1.847 1.847 0 0 0 11.026.013c-1.015 0-1.838.83-1.838 1.855 0 .394.126.777.358 1.093l-1.46 1.804a2.282 2.282 0 0 1-3.012.487l-1.49-.956c.06-.185.09-.378.091-.572a1.847 1.847 0 0 0-1.837-1.856C.823 1.868 0 2.698 0 3.723c0 .962.728 1.764 1.677 1.848l1.086 6.578a.46.46 0 0 0 .453.387h15.62a.46.46 0 0 0 .452-.387l1.086-6.578a1.85 1.85 0 0 0 1.667-2.013 1.845 1.845 0 0 0-1.827-1.69z"/>
            <ellipse cx="11.026" cy="12.073" fill="#FFA000" rx="7.81" ry="2.319"/>
            <path fill="#FFD54F" d="M11.026 14.856c-4.11 0-8.27-.956-8.27-2.783 0-1.828 4.16-2.783 8.27-2.783 4.11 0 8.269.955 8.269 2.783 0 1.827-4.16 2.783-8.27 2.783zm0-4.639c-4.826 0-7.35 1.206-7.35 1.856 0 .649 2.524 1.855 7.35 1.855 4.825 0 7.35-1.206 7.35-1.855 0-.65-2.525-1.856-7.35-1.856z"/>
        </g>
    </g>
</svg>
