<svg xmlns="http://www.w3.org/2000/svg" xmlns:xlink="http://www.w3.org/1999/xlink" width="78" height="78" viewBox="0 0 78 78">
    <defs>
        <circle id="b" cx="20" cy="20" r="20"/>
        <filter id="a" width="272.5%" height="272.5%" x="-86.2%" y="-63.8%" filterUnits="objectBoundingBox">
            <feOffset dy="9" in="SourceAlpha" result="shadowOffsetOuter1"/>
            <feGaussianBlur in="shadowOffsetOuter1" result="shadowBlurOuter1" stdDeviation="10"/>
            <feColorMatrix in="shadowBlurOuter1" values="0 0 0 0 0 0 0 0 0 0 0 0 0 0 0 0 0 0 0.094378278 0"/>
        </filter>
    </defs>
    <g fill="none" fill-rule="evenodd">
        <g transform="translate(19 10)">
            <use fill="#000" filter="url(#a)" xlink:href="#b"/>
            <use fill="#2A2C62" xlink:href="#b"/>
        </g>
        <g fill-rule="nonzero">
            <path fill="#AF8066" d="M34.392 26.211l-3.526 1.523-2.122 1.755 2.122.916v6.102L39 40.017l8.134-3.51-.01-.003.01-.028v-6.103l2.122-.916-2.122-1.754v.031l-3.476-1.498"/>
            <path fill="#7F8C8D" d="M47.134 27.734l-8.11 3.499-.024.01-8.134-3.509 3.526-1.523c1.05 1.38 2.992 2.706 4.643 3.629 1.645-.916 3.572-2.236 4.623-3.604l3.476 1.498z"/>
            <path fill="#AF8066" d="M47.134 36.476l-.01.028.01.003L39 40.017v-8.774l.025-.01 2.097 1.733 6.012-2.593z"/>
            <path fill="#7F5B53" d="M39 31.243v8.774l-8.134-3.51v-6.102l6.012 2.593z"/>
            <path fill="#CBB292" d="M39 31.243l-2.122 1.755-6.012-2.593-2.122-.916 2.122-1.755z"/>
            <path fill="#FDD7AD" d="M49.256 29.457l-2.122.916-6.012 2.593-2.097-1.733 8.11-3.499v-.031z"/>
            <path fill="#FF5364" d="M44.02 25.85c-.119.211-.256.412-.409.601C42.563 27.8 40.64 29.098 39 30c-1.648-.909-3.586-2.215-4.634-3.573a4.723 4.723 0 0 1-.388-.577c-1.253-2.077-1.253-4.15 0-5.19a3.445 3.445 0 0 1 2.754-.606c.964.2 1.792.8 2.268 1.646a3.384 3.384 0 0 1 2.267-1.646c.965-.2 1.97.022 2.755.606 1.256 1.04 1.256 3.113 0 5.19z"/>
            <g fill="#FB7B76">
                <path d="M35.901 22.015a.356.356 0 0 1-.356-.356v-.356a.356.356 0 0 1 .712 0v.356a.356.356 0 0 1-.356.356zM35.901 23.794a.356.356 0 0 1-.356-.356v-.355a.356.356 0 0 1 .712 0v.355a.356.356 0 0 1-.356.356zM35.19 22.727h-.356a.356.356 0 0 1 0-.712h.356a.356.356 0 0 1 0 .712zM36.969 22.727h-.356a.356.356 0 0 1 0-.712h.356a.356.356 0 0 1 0 .712z"/>
            </g>
        </g>
    </g>
</svg>
