<svg xmlns="http://www.w3.org/2000/svg" xmlns:xlink="http://www.w3.org/1999/xlink" width="78" height="78" viewBox="0 0 78 78">
    <defs>
        <circle id="b" cx="20" cy="20" r="20"/>
        <filter id="a" width="272.5%" height="272.5%" x="-86.2%" y="-63.8%" filterUnits="objectBoundingBox">
            <feOffset dy="9" in="SourceAlpha" result="shadowOffsetOuter1"/>
            <feGaussianBlur in="shadowOffsetOuter1" result="shadowBlurOuter1" stdDeviation="10"/>
            <feColorMatrix in="shadowBlurOuter1" values="0 0 0 0 0 0 0 0 0 0 0 0 0 0 0 0 0 0 0.094378278 0"/>
        </filter>
    </defs>
    <g fill="none" fill-rule="evenodd">
        <g transform="translate(19 10)">
            <use fill="#000" filter="url(#a)" xlink:href="#b"/>
            <use fill="#2A2C62" xlink:href="#b"/>
        </g>
        <g fill-rule="nonzero">
            <path fill="#7467D3" d="M45.667 19.23v13.86l-6.154.518-6.154-.518V19.23z"/>
            <path fill="#5546A4" d="M39.513 19.23v14.378l6.154-.518V19.23z"/>
            <path fill="#56489C" d="M43.387 19.23v11.74l-3.874.327-3.875-.327V19.23h1.368v10.468l2.507.212 2.507-.212V19.231z"/>
            <path fill="#FFEC88" d="M39.513 32.224c-2.89 0-5.242 2.376-5.242 5.298s2.351 5.299 5.242 5.299c2.89 0 5.242-2.377 5.242-5.299 0-2.922-2.352-5.298-5.242-5.298z"/>
            <path fill="#FFCB46" d="M39.513 32.224V42.82c2.89 0 5.242-2.377 5.242-5.299 0-2.922-2.352-5.298-5.242-5.298z"/>
            <path fill="#FA4446" d="M41.108 36.83h-.911v-.92h-1.368v.92h-.912v1.383h.912v.922h1.368v-.922h.911z"/>
            <path fill="#3C316D" d="M42.02 19.23v10.468l-2.507.212v1.387l3.874-.327V19.23z"/>
            <path fill="#FD0007" d="M40.197 36.83v-.92h-.684v3.225h.684v-.922h.911v-1.382z"/>
        </g>
    </g>
</svg>
