<svg xmlns="http://www.w3.org/2000/svg" xmlns:xlink="http://www.w3.org/1999/xlink" width="78" height="78" viewBox="0 0 78 78">
    <defs>
        <circle id="b" cx="20" cy="20" r="20"/>
        <filter id="a" width="272.5%" height="272.5%" x="-86.2%" y="-63.8%" filterUnits="objectBoundingBox">
            <feOffset dy="9" in="SourceAlpha" result="shadowOffsetOuter1"/>
            <feGaussianBlur in="shadowOffsetOuter1" result="shadowBlurOuter1" stdDeviation="10"/>
            <feColorMatrix in="shadowBlurOuter1" values="0 0 0 0 0 0 0 0 0 0 0 0 0 0 0 0 0 0 0.094378278 0"/>
        </filter>
    </defs>
    <g fill="none" fill-rule="evenodd">
        <g transform="translate(19 10)">
            <use fill="#000" filter="url(#a)" xlink:href="#b"/>
            <use fill="#2A2C62" xlink:href="#b"/>
        </g>
        <g fill-rule="nonzero">
            <path fill="#6AA9FF" d="M48.598 27.931l-4.556-4.585a.759.759 0 0 0-.246-.165l-2.068 2.768 1.018 2.523L45.83 30l2.99-1.528a.764.764 0 0 0-.222-.54z"/>
            <path fill="#4895FF" d="M43.616 23.18H39l.287 2.46 3.56 2.723 1.063-5.126a.792.792 0 0 0-.294-.056z"/>
            <path fill="#6AA9FF" d="M34.56 23.18a.736.736 0 0 0-.284.057l-1.004 2.385 2.027 2.741 3.398-2.684L39 23.18h-4.44z"/>
            <path fill="#A8EBFA" d="M42.819 28.485L39 30l-3.819-1.515L39 23.18z"/>
            <path fill="#66C0EE" d="M42.819 28.485L39 30v-6.82z"/>
            <g fill="#FFF4CA">
                <path d="M39.818 17.93v1.553c0 .42-.333.751-.757.751a.747.747 0 0 1-.757-.75V17.93c0-.421.333-.752.757-.752s.757.33.757.752zM39.818 40.517v1.552c0 .42-.333.752-.757.752a.747.747 0 0 1-.757-.752v-1.552c0-.421.333-.751.757-.751s.757.33.757.75zM31.033 23.095l-1.07-1.063a.747.747 0 0 1 0-1.062.76.76 0 0 1 1.07 0l1.07 1.062a.747.747 0 0 1 0 1.063.76.76 0 0 1-1.07 0z"/>
            </g>
            <path fill="#FFE1BA" d="M47.047 39.064l-1.017-1.017a.719.719 0 1 1 1.017-1.017l1.017 1.017a.719.719 0 1 1-1.017 1.017z"/>
            <path fill="#FFF4CA" d="M28.442 32.455h-1.525c-.407 0-.738-.366-.738-.818 0-.453.33-.819.738-.819h1.525c.408 0 .738.366.738.819 0 .452-.33.818-.738.818z"/>
            <path fill="#FFE1BA" d="M51.083 32.455h-1.525c-.408 0-.738-.366-.738-.818 0-.453.33-.819.738-.819h1.525c.407 0 .738.366.738.819 0 .452-.33.818-.738.818z"/>
            <path fill="#FFF4CA" d="M29.936 39.064a.719.719 0 0 1 0-1.017l1.017-1.017a.719.719 0 1 1 1.017 1.017l-1.017 1.017a.719.719 0 0 1-1.017 0z"/>
            <path fill="#FFE1BA" d="M46.03 22.97a.719.719 0 0 1 0-1.017l1.017-1.017a.719.719 0 1 1 1.017 1.017l-1.017 1.017a.719.719 0 0 1-1.017 0z"/>
            <path fill="#5ECEF4" d="M33.9 23.346l-4.5 4.585a.77.77 0 0 0-.22.54L32.509 30l2.672-1.528-1.037-5.291a.749.749 0 0 0-.243.165z"/>
            <path fill="#FFE1BA" d="M39 20.18v-3c.458 0 .818.324.818.737v1.525c0 .413-.36.738-.818.738zM39.818 40.558v1.525c0 .413-.36.738-.818.738V39.82c.458 0 .818.325.818.738z"/>
            <path fill="#6AA9FF" d="M29.18 28.363c0 .193.074.385.221.532l9.053 9.016-.44-5.75-2.798-3.798H29.18z"/>
            <path fill="#4895FF" d="M39.546 37.91l9.053-9.015a.747.747 0 0 0 .221-.532h-6.036l-2.711 3.545-.527 6.003z"/>
            <path fill="#5ECEF4" d="M42.819 28.363l-3.284 9.594a.72.72 0 0 1-.535.226.72.72 0 0 1-.535-.226l-3.284-9.594h7.638z"/>
            <path fill="#6AA9FF" d="M42.819 28.363l-3.284 9.594a.72.72 0 0 1-.535.226v-9.82h3.819z"/>
        </g>
    </g>
</svg>
